<mxfile host="app.diagrams.net" modified="2020-11-19T22:09:33.355Z" agent="5.0 (Windows NT 10.0; Win64; x64) AppleWebKit/537.36 (KHTML, like Gecko) Chrome/86.0.4240.198 Safari/537.36" etag="KMvpaOmhNKNwLx_wZDkK" version="13.9.8" type="github">
  <diagram id="C5RBs43oDa-KdzZeNtuy" name="Page-1">
    <mxGraphModel dx="1209" dy="643" grid="1" gridSize="10" guides="1" tooltips="1" connect="1" arrows="1" fold="1" page="1" pageScale="1" pageWidth="1169" pageHeight="1654" math="0" shadow="0">
      <root>
        <mxCell id="WIyWlLk6GJQsqaUBKTNV-0" />
        <mxCell id="WIyWlLk6GJQsqaUBKTNV-1" parent="WIyWlLk6GJQsqaUBKTNV-0" />
        <mxCell id="PC9s2-U-Bj0kXFb0hQpz-0" value="AdservingEngine" style="swimlane;fontStyle=1;align=center;verticalAlign=top;childLayout=stackLayout;horizontal=1;startSize=26;horizontalStack=0;resizeParent=1;resizeParentMax=0;resizeLast=0;collapsible=1;marginBottom=0;" parent="WIyWlLk6GJQsqaUBKTNV-1" vertex="1">
          <mxGeometry x="600" y="210" width="190" height="86" as="geometry" />
        </mxCell>
        <mxCell id="PC9s2-U-Bj0kXFb0hQpz-1" value="+ customers : vector&lt;Customer&gt;" style="text;strokeColor=none;fillColor=none;align=left;verticalAlign=top;spacingLeft=4;spacingRight=4;overflow=hidden;rotatable=0;points=[[0,0.5],[1,0.5]];portConstraint=eastwest;" parent="PC9s2-U-Bj0kXFb0hQpz-0" vertex="1">
          <mxGeometry y="26" width="190" height="26" as="geometry" />
        </mxCell>
        <mxCell id="PC9s2-U-Bj0kXFb0hQpz-2" value="" style="line;strokeWidth=1;fillColor=none;align=left;verticalAlign=middle;spacingTop=-1;spacingLeft=3;spacingRight=3;rotatable=0;labelPosition=right;points=[];portConstraint=eastwest;" parent="PC9s2-U-Bj0kXFb0hQpz-0" vertex="1">
          <mxGeometry y="52" width="190" height="8" as="geometry" />
        </mxCell>
        <mxCell id="PC9s2-U-Bj0kXFb0hQpz-3" value="+ getNextAd() : Ad" style="text;strokeColor=none;fillColor=none;align=left;verticalAlign=top;spacingLeft=4;spacingRight=4;overflow=hidden;rotatable=0;points=[[0,0.5],[1,0.5]];portConstraint=eastwest;" parent="PC9s2-U-Bj0kXFb0hQpz-0" vertex="1">
          <mxGeometry y="60" width="190" height="26" as="geometry" />
        </mxCell>
        <mxCell id="PC9s2-U-Bj0kXFb0hQpz-8" value="Campaign" style="swimlane;fontStyle=1;align=center;verticalAlign=top;childLayout=stackLayout;horizontal=1;startSize=26;horizontalStack=0;resizeParent=1;resizeParentMax=0;resizeLast=0;collapsible=1;marginBottom=0;" parent="WIyWlLk6GJQsqaUBKTNV-1" vertex="1">
          <mxGeometry x="890" y="10" width="250" height="120" as="geometry">
            <mxRectangle x="790" y="10" width="90" height="26" as="alternateBounds" />
          </mxGeometry>
        </mxCell>
        <mxCell id="PC9s2-U-Bj0kXFb0hQpz-9" value="+ namn : str&#xa;+ id : int&#xa;+ fromDateTime : time_t&#xa;+ toDateTime: time_t&#xa;+ campaignCost : float&#xa;+ ads : vector&lt;Ad&gt;" style="text;strokeColor=none;fillColor=none;align=left;verticalAlign=top;spacingLeft=4;spacingRight=4;overflow=hidden;rotatable=0;points=[[0,0.5],[1,0.5]];portConstraint=eastwest;" parent="PC9s2-U-Bj0kXFb0hQpz-8" vertex="1">
          <mxGeometry y="26" width="250" height="94" as="geometry" />
        </mxCell>
        <mxCell id="PC9s2-U-Bj0kXFb0hQpz-62" style="edgeStyle=orthogonalEdgeStyle;rounded=0;orthogonalLoop=1;jettySize=auto;html=1;startFill=0;" parent="WIyWlLk6GJQsqaUBKTNV-1" source="PC9s2-U-Bj0kXFb0hQpz-20" target="PC9s2-U-Bj0kXFb0hQpz-9" edge="1">
          <mxGeometry relative="1" as="geometry" />
        </mxCell>
        <mxCell id="PC9s2-U-Bj0kXFb0hQpz-20" value="Ad" style="swimlane;fontStyle=1;align=center;verticalAlign=top;childLayout=stackLayout;horizontal=1;startSize=26;horizontalStack=0;resizeParent=1;resizeParentMax=0;resizeLast=0;collapsible=1;marginBottom=0;" parent="WIyWlLk6GJQsqaUBKTNV-1" vertex="1">
          <mxGeometry x="980" y="170" width="160" height="100" as="geometry" />
        </mxCell>
        <object label="+ namn : str&#xa;+ id : int&#xa;+ adText : str&#xa;+ adType : AdType" namn="str" id="PC9s2-U-Bj0kXFb0hQpz-21">
          <mxCell style="text;strokeColor=none;fillColor=none;align=left;verticalAlign=top;spacingLeft=4;spacingRight=4;overflow=hidden;rotatable=0;points=[[0,0.5],[1,0.5]];portConstraint=eastwest;" parent="PC9s2-U-Bj0kXFb0hQpz-20" vertex="1">
            <mxGeometry y="26" width="160" height="74" as="geometry" />
          </mxCell>
        </object>
        <mxCell id="PC9s2-U-Bj0kXFb0hQpz-24" value="AdType (enum)" style="swimlane;fontStyle=1;align=center;verticalAlign=top;childLayout=stackLayout;horizontal=1;startSize=26;horizontalStack=0;resizeParent=1;resizeParentMax=0;resizeLast=0;collapsible=1;marginBottom=0;" parent="WIyWlLk6GJQsqaUBKTNV-1" vertex="1">
          <mxGeometry x="980" y="350" width="160" height="80" as="geometry" />
        </mxCell>
        <mxCell id="PC9s2-U-Bj0kXFb0hQpz-25" value="scroll&#xa;blink&#xa;plainText" style="text;strokeColor=none;fillColor=none;align=left;verticalAlign=top;spacingLeft=4;spacingRight=4;overflow=hidden;rotatable=0;points=[[0,0.5],[1,0.5]];portConstraint=eastwest;" parent="PC9s2-U-Bj0kXFb0hQpz-24" vertex="1">
          <mxGeometry y="26" width="160" height="54" as="geometry" />
        </mxCell>
        <mxCell id="PC9s2-U-Bj0kXFb0hQpz-28" value="LogSearchEngine" style="swimlane;fontStyle=1;align=center;verticalAlign=top;childLayout=stackLayout;horizontal=1;startSize=26;horizontalStack=0;resizeParent=1;resizeParentMax=0;resizeLast=0;collapsible=1;marginBottom=0;" parent="WIyWlLk6GJQsqaUBKTNV-1" vertex="1">
          <mxGeometry x="690" y="440" width="230" height="86" as="geometry" />
        </mxCell>
        <mxCell id="PC9s2-U-Bj0kXFb0hQpz-29" value="+" style="text;strokeColor=none;fillColor=none;align=left;verticalAlign=top;spacingLeft=4;spacingRight=4;overflow=hidden;rotatable=0;points=[[0,0.5],[1,0.5]];portConstraint=eastwest;" parent="PC9s2-U-Bj0kXFb0hQpz-28" vertex="1">
          <mxGeometry y="26" width="230" height="26" as="geometry" />
        </mxCell>
        <mxCell id="PC9s2-U-Bj0kXFb0hQpz-30" value="" style="line;strokeWidth=1;fillColor=none;align=left;verticalAlign=middle;spacingTop=-1;spacingLeft=3;spacingRight=3;rotatable=0;labelPosition=right;points=[];portConstraint=eastwest;" parent="PC9s2-U-Bj0kXFb0hQpz-28" vertex="1">
          <mxGeometry y="52" width="230" height="8" as="geometry" />
        </mxCell>
        <mxCell id="PC9s2-U-Bj0kXFb0hQpz-31" value="+ search(customerid) : vector&lt;LogEntry&gt;" style="text;strokeColor=none;fillColor=none;align=left;verticalAlign=top;spacingLeft=4;spacingRight=4;overflow=hidden;rotatable=0;points=[[0,0.5],[1,0.5]];portConstraint=eastwest;" parent="PC9s2-U-Bj0kXFb0hQpz-28" vertex="1">
          <mxGeometry y="60" width="230" height="26" as="geometry" />
        </mxCell>
        <mxCell id="PC9s2-U-Bj0kXFb0hQpz-32" value="LogEntry" style="swimlane;fontStyle=1;align=center;verticalAlign=top;childLayout=stackLayout;horizontal=1;startSize=26;horizontalStack=0;resizeParent=1;resizeParentMax=0;resizeLast=0;collapsible=1;marginBottom=0;" parent="WIyWlLk6GJQsqaUBKTNV-1" vertex="1">
          <mxGeometry x="980" y="460" width="160" height="134" as="geometry" />
        </mxCell>
        <mxCell id="PC9s2-U-Bj0kXFb0hQpz-33" value="+ adid : int&#xa;+ campaignid : int&#xa;+ customerid : int&#xa;+ timestamp : time_t" style="text;strokeColor=none;fillColor=none;align=left;verticalAlign=top;spacingLeft=4;spacingRight=4;overflow=hidden;rotatable=0;points=[[0,0.5],[1,0.5]];portConstraint=eastwest;" parent="PC9s2-U-Bj0kXFb0hQpz-32" vertex="1">
          <mxGeometry y="26" width="160" height="74" as="geometry" />
        </mxCell>
        <mxCell id="PC9s2-U-Bj0kXFb0hQpz-34" value="" style="line;strokeWidth=1;fillColor=none;align=left;verticalAlign=middle;spacingTop=-1;spacingLeft=3;spacingRight=3;rotatable=0;labelPosition=right;points=[];portConstraint=eastwest;" parent="PC9s2-U-Bj0kXFb0hQpz-32" vertex="1">
          <mxGeometry y="100" width="160" height="8" as="geometry" />
        </mxCell>
        <mxCell id="PC9s2-U-Bj0kXFb0hQpz-35" value="Â " style="text;strokeColor=none;fillColor=none;align=left;verticalAlign=top;spacingLeft=4;spacingRight=4;overflow=hidden;rotatable=0;points=[[0,0.5],[1,0.5]];portConstraint=eastwest;" parent="PC9s2-U-Bj0kXFb0hQpz-32" vertex="1">
          <mxGeometry y="108" width="160" height="26" as="geometry" />
        </mxCell>
        <mxCell id="PC9s2-U-Bj0kXFb0hQpz-64" style="edgeStyle=orthogonalEdgeStyle;rounded=0;orthogonalLoop=1;jettySize=auto;html=1;entryX=0.5;entryY=0;entryDx=0;entryDy=0;startFill=0;" parent="WIyWlLk6GJQsqaUBKTNV-1" source="PC9s2-U-Bj0kXFb0hQpz-38" target="PC9s2-U-Bj0kXFb0hQpz-0" edge="1">
          <mxGeometry relative="1" as="geometry" />
        </mxCell>
        <mxCell id="PC9s2-U-Bj0kXFb0hQpz-38" value="Customer" style="swimlane;fontStyle=1;align=center;verticalAlign=top;childLayout=stackLayout;horizontal=1;startSize=26;horizontalStack=0;resizeParent=1;resizeParentMax=0;resizeLast=0;collapsible=1;marginBottom=0;" parent="WIyWlLk6GJQsqaUBKTNV-1" vertex="1">
          <mxGeometry x="585" y="25" width="190" height="124" as="geometry" />
        </mxCell>
        <mxCell id="PC9s2-U-Bj0kXFb0hQpz-39" value="+ namn : str&#xa;+ id : int&#xa;+ campaigns : vector&lt;Campaign&gt;" style="text;strokeColor=none;fillColor=none;align=left;verticalAlign=top;spacingLeft=4;spacingRight=4;overflow=hidden;rotatable=0;points=[[0,0.5],[1,0.5]];portConstraint=eastwest;" parent="PC9s2-U-Bj0kXFb0hQpz-38" vertex="1">
          <mxGeometry y="26" width="190" height="64" as="geometry" />
        </mxCell>
        <mxCell id="PC9s2-U-Bj0kXFb0hQpz-40" value="" style="line;strokeWidth=1;fillColor=none;align=left;verticalAlign=middle;spacingTop=-1;spacingLeft=3;spacingRight=3;rotatable=0;labelPosition=right;points=[];portConstraint=eastwest;" parent="PC9s2-U-Bj0kXFb0hQpz-38" vertex="1">
          <mxGeometry y="90" width="190" height="8" as="geometry" />
        </mxCell>
        <mxCell id="PC9s2-U-Bj0kXFb0hQpz-41" value="+ hasActiveCampaigns() : bool" style="text;strokeColor=none;fillColor=none;align=left;verticalAlign=top;spacingLeft=4;spacingRight=4;overflow=hidden;rotatable=0;points=[[0,0.5],[1,0.5]];portConstraint=eastwest;" parent="PC9s2-U-Bj0kXFb0hQpz-38" vertex="1">
          <mxGeometry y="98" width="190" height="26" as="geometry" />
        </mxCell>
        <mxCell id="PC9s2-U-Bj0kXFb0hQpz-42" value="Use" style="endArrow=open;endSize=12;dashed=1;html=1;exitX=0.502;exitY=1.029;exitDx=0;exitDy=0;exitPerimeter=0;entryX=0.5;entryY=0;entryDx=0;entryDy=0;" parent="WIyWlLk6GJQsqaUBKTNV-1" source="PC9s2-U-Bj0kXFb0hQpz-21" target="PC9s2-U-Bj0kXFb0hQpz-24" edge="1">
          <mxGeometry width="160" relative="1" as="geometry">
            <mxPoint x="490" y="330" as="sourcePoint" />
            <mxPoint x="650" y="330" as="targetPoint" />
          </mxGeometry>
        </mxCell>
        <mxCell id="PC9s2-U-Bj0kXFb0hQpz-63" style="edgeStyle=orthogonalEdgeStyle;rounded=0;orthogonalLoop=1;jettySize=auto;html=1;entryX=1;entryY=0.5;entryDx=0;entryDy=0;startFill=0;" parent="WIyWlLk6GJQsqaUBKTNV-1" source="PC9s2-U-Bj0kXFb0hQpz-9" target="PC9s2-U-Bj0kXFb0hQpz-39" edge="1">
          <mxGeometry relative="1" as="geometry" />
        </mxCell>
        <mxCell id="PC9s2-U-Bj0kXFb0hQpz-65" style="edgeStyle=orthogonalEdgeStyle;rounded=0;orthogonalLoop=1;jettySize=auto;html=1;entryX=1.005;entryY=0.816;entryDx=0;entryDy=0;entryPerimeter=0;startFill=0;" parent="WIyWlLk6GJQsqaUBKTNV-1" source="PC9s2-U-Bj0kXFb0hQpz-33" target="PC9s2-U-Bj0kXFb0hQpz-29" edge="1">
          <mxGeometry relative="1" as="geometry" />
        </mxCell>
        <mxCell id="PC9s2-U-Bj0kXFb0hQpz-66" value="Interface (main)" style="swimlane;fontStyle=1;align=center;verticalAlign=top;childLayout=stackLayout;horizontal=1;startSize=26;horizontalStack=0;resizeParent=1;resizeParentMax=0;resizeLast=0;collapsible=1;marginBottom=0;" parent="WIyWlLk6GJQsqaUBKTNV-1" vertex="1">
          <mxGeometry x="20" y="20" width="260" height="150" as="geometry" />
        </mxCell>
        <mxCell id="PC9s2-U-Bj0kXFb0hQpz-67" value="+activeCustomer :" style="text;strokeColor=none;fillColor=none;align=left;verticalAlign=top;spacingLeft=4;spacingRight=4;overflow=hidden;rotatable=0;points=[[0,0.5],[1,0.5]];portConstraint=eastwest;" parent="PC9s2-U-Bj0kXFb0hQpz-66" vertex="1">
          <mxGeometry y="26" width="260" height="26" as="geometry" />
        </mxCell>
        <mxCell id="PC9s2-U-Bj0kXFb0hQpz-68" value="" style="line;strokeWidth=1;fillColor=none;align=left;verticalAlign=middle;spacingTop=-1;spacingLeft=3;spacingRight=3;rotatable=0;labelPosition=right;points=[];portConstraint=eastwest;" parent="PC9s2-U-Bj0kXFb0hQpz-66" vertex="1">
          <mxGeometry y="52" width="260" height="8" as="geometry" />
        </mxCell>
        <mxCell id="PC9s2-U-Bj0kXFb0hQpz-69" value="+displayInterface() : void&#xa;+getUserInput() : int&#xa;+listCustomers(*(vector)&lt;Customer&gt;) : void&#xa;+ chooseCustomer(*(vector&lt;Customer&gt;, id int) :Â " style="text;strokeColor=none;fillColor=none;align=left;verticalAlign=top;spacingLeft=4;spacingRight=4;overflow=hidden;rotatable=0;points=[[0,0.5],[1,0.5]];portConstraint=eastwest;" parent="PC9s2-U-Bj0kXFb0hQpz-66" vertex="1">
          <mxGeometry y="60" width="260" height="90" as="geometry" />
        </mxCell>
        <mxCell id="PC9s2-U-Bj0kXFb0hQpz-74" value="AdAdmin" style="swimlane;fontStyle=1;align=center;verticalAlign=top;childLayout=stackLayout;horizontal=1;startSize=26;horizontalStack=0;resizeParent=1;resizeParentMax=0;resizeLast=0;collapsible=1;marginBottom=0;" parent="WIyWlLk6GJQsqaUBKTNV-1" vertex="1">
          <mxGeometry x="30" y="220" width="210" height="130" as="geometry" />
        </mxCell>
        <mxCell id="PC9s2-U-Bj0kXFb0hQpz-75" value="+ customerPtr : *(vector)&lt;Customer&gt;" style="text;strokeColor=none;fillColor=none;align=left;verticalAlign=top;spacingLeft=4;spacingRight=4;overflow=hidden;rotatable=0;points=[[0,0.5],[1,0.5]];portConstraint=eastwest;" parent="PC9s2-U-Bj0kXFb0hQpz-74" vertex="1">
          <mxGeometry y="26" width="210" height="26" as="geometry" />
        </mxCell>
        <mxCell id="PC9s2-U-Bj0kXFb0hQpz-76" value="" style="line;strokeWidth=1;fillColor=none;align=left;verticalAlign=middle;spacingTop=-1;spacingLeft=3;spacingRight=3;rotatable=0;labelPosition=right;points=[];portConstraint=eastwest;" parent="PC9s2-U-Bj0kXFb0hQpz-74" vertex="1">
          <mxGeometry y="52" width="210" height="8" as="geometry" />
        </mxCell>
        <mxCell id="PC9s2-U-Bj0kXFb0hQpz-77" value="+createAd(xxx) : Ad&#xa;+deleteAd(int id) : bool&#xa;+updateAd(int id, xxx) : bool" style="text;strokeColor=none;fillColor=none;align=left;verticalAlign=top;spacingLeft=4;spacingRight=4;overflow=hidden;rotatable=0;points=[[0,0.5],[1,0.5]];portConstraint=eastwest;" parent="PC9s2-U-Bj0kXFb0hQpz-74" vertex="1">
          <mxGeometry y="60" width="210" height="70" as="geometry" />
        </mxCell>
        <mxCell id="PC9s2-U-Bj0kXFb0hQpz-78" value="CustomerAdmin" style="swimlane;fontStyle=1;align=center;verticalAlign=top;childLayout=stackLayout;horizontal=1;startSize=26;horizontalStack=0;resizeParent=1;resizeParentMax=0;resizeLast=0;collapsible=1;marginBottom=0;" parent="WIyWlLk6GJQsqaUBKTNV-1" vertex="1">
          <mxGeometry x="30" y="526" width="300" height="150" as="geometry" />
        </mxCell>
        <mxCell id="PC9s2-U-Bj0kXFb0hQpz-79" value="+ customerPtr : *(vector)&lt;Customer&gt;" style="text;strokeColor=none;fillColor=none;align=left;verticalAlign=top;spacingLeft=4;spacingRight=4;overflow=hidden;rotatable=0;points=[[0,0.5],[1,0.5]];portConstraint=eastwest;" parent="PC9s2-U-Bj0kXFb0hQpz-78" vertex="1">
          <mxGeometry y="26" width="300" height="26" as="geometry" />
        </mxCell>
        <mxCell id="PC9s2-U-Bj0kXFb0hQpz-80" value="" style="line;strokeWidth=1;fillColor=none;align=left;verticalAlign=middle;spacingTop=-1;spacingLeft=3;spacingRight=3;rotatable=0;labelPosition=right;points=[];portConstraint=eastwest;" parent="PC9s2-U-Bj0kXFb0hQpz-78" vertex="1">
          <mxGeometry y="52" width="300" height="8" as="geometry" />
        </mxCell>
        <mxCell id="PC9s2-U-Bj0kXFb0hQpz-81" value="+addCustomer((*vector&lt;Customer&gt;, xxx) : bool&#xa;+deleteCustomer((*vector&lt;Customer&gt;, int id) : bool" style="text;strokeColor=none;fillColor=none;align=left;verticalAlign=top;spacingLeft=4;spacingRight=4;overflow=hidden;rotatable=0;points=[[0,0.5],[1,0.5]];portConstraint=eastwest;" parent="PC9s2-U-Bj0kXFb0hQpz-78" vertex="1">
          <mxGeometry y="60" width="300" height="90" as="geometry" />
        </mxCell>
        <mxCell id="Q0FWSGUMRbfBNoG91NxI-4" value="CampaignAdmin" style="swimlane;fontStyle=1;align=center;verticalAlign=top;childLayout=stackLayout;horizontal=1;startSize=26;horizontalStack=0;resizeParent=1;resizeParentMax=0;resizeLast=0;collapsible=1;marginBottom=0;" vertex="1" parent="WIyWlLk6GJQsqaUBKTNV-1">
          <mxGeometry x="30" y="370" width="310" height="130" as="geometry" />
        </mxCell>
        <mxCell id="Q0FWSGUMRbfBNoG91NxI-5" value="+ customerPtr : *(vector)&lt;Customer&gt;" style="text;strokeColor=none;fillColor=none;align=left;verticalAlign=top;spacingLeft=4;spacingRight=4;overflow=hidden;rotatable=0;points=[[0,0.5],[1,0.5]];portConstraint=eastwest;" vertex="1" parent="Q0FWSGUMRbfBNoG91NxI-4">
          <mxGeometry y="26" width="310" height="26" as="geometry" />
        </mxCell>
        <mxCell id="Q0FWSGUMRbfBNoG91NxI-6" value="" style="line;strokeWidth=1;fillColor=none;align=left;verticalAlign=middle;spacingTop=-1;spacingLeft=3;spacingRight=3;rotatable=0;labelPosition=right;points=[];portConstraint=eastwest;" vertex="1" parent="Q0FWSGUMRbfBNoG91NxI-4">
          <mxGeometry y="52" width="310" height="8" as="geometry" />
        </mxCell>
        <mxCell id="Q0FWSGUMRbfBNoG91NxI-7" value="+createCampaign(xxx) : Campaign&#xa;+deleteCampaign(int id, *(vector)&lt;Customer&gt; : bool&#xa;+updateAd(int id, xxx) : bool" style="text;strokeColor=none;fillColor=none;align=left;verticalAlign=top;spacingLeft=4;spacingRight=4;overflow=hidden;rotatable=0;points=[[0,0.5],[1,0.5]];portConstraint=eastwest;" vertex="1" parent="Q0FWSGUMRbfBNoG91NxI-4">
          <mxGeometry y="60" width="310" height="70" as="geometry" />
        </mxCell>
        <mxCell id="Q0FWSGUMRbfBNoG91NxI-18" value="" style="group" vertex="1" connectable="0" parent="WIyWlLk6GJQsqaUBKTNV-1">
          <mxGeometry x="310" y="120" width="260" height="140" as="geometry" />
        </mxCell>
        <mxCell id="Q0FWSGUMRbfBNoG91NxI-13" value="AdAdmin" style="swimlane;fontStyle=1;align=center;verticalAlign=top;childLayout=stackLayout;horizontal=1;startSize=26;horizontalStack=0;resizeParent=1;resizeParentMax=0;resizeLast=0;collapsible=1;marginBottom=0;" vertex="1" parent="Q0FWSGUMRbfBNoG91NxI-18">
          <mxGeometry width="260" height="80" as="geometry" />
        </mxCell>
        <mxCell id="Q0FWSGUMRbfBNoG91NxI-14" value="+adadmin : AdAdmin&#xa;+ campaignadmin : CampaignAdmin&#xa;+customeradmin : CustomerAdmin" style="text;strokeColor=none;fillColor=none;align=left;verticalAlign=top;spacingLeft=4;spacingRight=4;overflow=hidden;rotatable=0;points=[[0,0.5],[1,0.5]];portConstraint=eastwest;" vertex="1" parent="Q0FWSGUMRbfBNoG91NxI-13">
          <mxGeometry y="26" width="260" height="54" as="geometry" />
        </mxCell>
        <mxCell id="Q0FWSGUMRbfBNoG91NxI-17" value="" style="rounded=0;whiteSpace=wrap;html=1;" vertex="1" parent="Q0FWSGUMRbfBNoG91NxI-18">
          <mxGeometry y="80" width="260" height="60" as="geometry" />
        </mxCell>
      </root>
    </mxGraphModel>
  </diagram>
</mxfile>
